<?xml version="1.0" encoding="utf-8"?>
<!-- Generator: Adobe Illustrator 22.0.0, SVG Export Plug-In . SVG Version: 6.00 Build 0)  -->
<svg version="1.1" id="图层_1" xmlns="http://www.w3.org/2000/svg" xmlns:xlink="http://www.w3.org/1999/xlink" x="0px" y="0px"
	 viewBox="0 0 200 49.3" style="enable-background:new 0 0 200 49.3;" xml:space="preserve">
<style type="text/css">
	.st0{fill:#3F3D56;}
	.st1{fill:#FF8257;}
</style>
<path class="st0" d="M28.7,15.6c0,1.7-0.3,3.4-0.9,4.8c-0.6,1.5-1.4,2.8-2.6,3.8c-1.2,1.1-2.6,1.9-4.3,2.5c-1.7,0.6-3.7,0.9-6,0.9
	h-3.2v10.8H5.4V4.9h9.8c2.2,0,4.1,0.2,5.8,0.7c1.7,0.5,3.1,1.2,4.2,2.1c1.1,0.9,2,2,2.6,3.3C28.4,12.3,28.7,13.8,28.7,15.6z
	 M22.1,16c0-0.9-0.1-1.7-0.4-2.4c-0.3-0.7-0.7-1.3-1.3-1.9c-0.6-0.5-1.3-0.9-2.2-1.2s-1.9-0.4-3.1-0.4h-3.3v12.3h3.5
	c1.1,0,2.1-0.2,2.9-0.4s1.5-0.7,2.1-1.3c0.6-0.6,1-1.3,1.3-2C21.9,17.8,22.1,17,22.1,16L22.1,16z M40.6,12.3v17
	c0,1.4,0.3,2.5,0.8,3.2c0.5,0.7,1.3,1.1,2.4,1.1c1,0,2.1-0.4,3-1.3c1-0.9,2-2,3.1-3.5V12.4h6.3v26.1h-5.4l-0.2-3.8
	c-0.5,0.7-1.1,1.3-1.7,1.8c-0.6,0.5-1.2,1-1.8,1.4s-1.4,0.7-2.1,0.9c-0.8,0.2-1.6,0.3-2.6,0.3c-1.3,0-2.5-0.2-3.5-0.7
	c-1-0.4-1.8-1.1-2.5-1.9c-0.7-0.8-1.2-1.8-1.5-2.9c-0.3-1.1-0.5-2.4-0.5-3.8V12.3L40.6,12.3L40.6,12.3z M81.5,37.7
	c0,2-0.3,3.7-0.9,5.1c-0.6,1.4-1.4,2.6-2.5,3.6s-2.3,1.7-3.8,2.1s-3.2,0.7-5,0.7c-1.5,0-2.9-0.1-4.2-0.4c-1.3-0.3-2.4-0.6-3.2-0.9
	v-5.7c0.5,0.3,1,0.5,1.6,0.8c0.6,0.3,1.3,0.5,1.9,0.7c0.7,0.2,1.3,0.4,2,0.5c0.7,0.1,1.4,0.2,2,0.2c1.9,0,3.3-0.5,4.3-1.6
	c0.9-1.1,1.4-2.7,1.4-4.8V17.2H62.7v-4.9h18.8L81.5,37.7L81.5,37.7z M82,5.2c0,0.6-0.1,1.1-0.3,1.6s-0.5,0.9-0.9,1.3
	c-0.4,0.4-0.8,0.7-1.3,0.9s-1.1,0.3-1.6,0.3c-0.6,0-1.1-0.1-1.6-0.3c-0.5-0.2-0.9-0.5-1.3-0.9c-0.4-0.4-0.7-0.8-0.9-1.3
	c-0.2-0.5-0.3-1-0.3-1.6s0.1-1.1,0.3-1.6s0.5-0.9,0.9-1.3c0.4-0.4,0.8-0.7,1.3-0.9s1-0.3,1.6-0.3s1.1,0.1,1.6,0.3
	c0.5,0.2,0.9,0.5,1.3,0.9s0.7,0.8,0.9,1.3S82,4.6,82,5.2z M96,17.2h-7.4v-4.9h13.8v21.2h7.5v4.9H87.7v-4.9H96
	C96,33.5,96,17.2,96,17.2z M167.7,26.1c0,2.1-0.3,4-0.9,5.6c-0.6,1.6-1.4,3-2.5,4s-2.4,1.9-3.9,2.4c-1.5,0.5-3.3,0.8-5.2,0.8
	c-2.1,0-4-0.3-5.5-0.8c-1.5-0.5-2.8-1.3-3.8-2.4s-1.7-2.3-2.1-3.8c-0.4-1.5-0.6-3.1-0.6-5V4.9h6.3v21.9c0,1.1,0.1,2.1,0.3,3
	s0.5,1.6,1,2.2c0.5,0.6,1.1,1.1,1.8,1.4c0.7,0.3,1.7,0.5,2.8,0.5c1,0,1.9-0.1,2.6-0.4c0.7-0.3,1.3-0.7,1.8-1.3
	c0.5-0.6,0.8-1.3,1.1-2.3c0.2-0.9,0.4-2.1,0.4-3.4V4.9h6.3V26.1z M173.3,10V4.9h21.2V10h-7.4v23.2h7.4v5.2h-21.2v-5.2h7.4V10H173.3z
	"/>
<path class="st0" d="M118,19.3h17.1v6H118V19.3z"/>
<path class="st1" d="M95,5.2c0,2.6,2.1,4.7,4.7,4.7c2.6,0,4.7-2.1,4.7-4.7l0,0c0-2.6-2.1-4.7-4.7-4.7C97.1,0.5,95,2.6,95,5.2z"/>
</svg>
